<?xml version="1.0" encoding="UTF-8"?><svg id="Layer_1" xmlns="http://www.w3.org/2000/svg" viewBox="0 0 306.37 74.28"><defs><style>.cls-1{fill:#f67752;}</style></defs><path class="cls-1" d="M227.88,12.99c.15,0,.3,.02,.46,.02h8.03c2.63,0,4.51,1.88,4.51,4.5V52.02h-13.02v-12.96h-26.04v12.96h-13.03V17.54c0-2.64,1.88-4.52,4.53-4.52h4.05c2.55,0,4.42-1.86,4.43-4.41V4.56c0-2.34,1.38-4.02,3.67-4.49,.05,0,.09-.04,.14-.06h18.44c.24,.06,.49,.12,.73,.19,1.85,.57,3.07,2.24,3.08,4.22V12.58c0,.14,0,.28,.02,.42h-21.57c-2.62,0-4.51,1.88-4.51,4.5v12.81h26.06V13.47c0-.17,0-.33,0-.5v.02Z"/><path class="cls-1" d="M52.09,.01V13.01h-15.08c-2.22,0-3.97,1.43-4.38,3.56-.07,.37-.07,.76-.07,1.14V52.02h-13.03V17.51c0-2.62,1.89-4.49,4.52-4.5h4.05c2.55,0,4.42-1.84,4.45-4.39,.02-1.34,0-2.67,0-4.01,0-2.42,1.3-4.02,3.68-4.55,.04,0,.07-.03,.1-.05,5.25,0,10.51,0,15.76,0Z"/><path class="cls-1" d="M110.69,39.05c0,.15-.02,.3-.02,.46v12.53h-8.55c-2.59,0-4.46-1.86-4.48-4.45-.01-1.57,.04-3.14-.05-4.7-.13-2.11-1.98-3.8-4.1-3.85-1.5-.03-3.01,0-4.51,0-2.11-.02-3.83-1.42-4.26-3.47-.08-.38-.1-.78-.1-1.18V.54c0-.18-.01-.35-.02-.53h13.08c0,.13-.03,.25-.03,.38V34.52c0,.32,0,.64,.07,.95,.41,2.12,2.15,3.56,4.33,3.57,2.88,0,5.76,0,8.64,.01Z"/><path class="cls-1" d="M71.59,.01V34.58c0,2.17,1.38,3.92,3.45,4.36,.36,.08,.73,.1,1.1,.1h8.43v13h-8.51c-2.59,0-4.48-1.89-4.48-4.49v-4.13c-.01-2.49-1.88-4.37-4.37-4.39h-4.13c-2.63,0-4.51-1.88-4.51-4.5V0c4.35,0,8.69,0,13.02,0Z"/><path class="cls-1" d="M110.68,39.06V.01h13V34.6c0,2.54-1.9,4.43-4.45,4.44h-8.1c-.15,0-.3,0-.46,.02h0Z"/><path class="cls-1" d="M299.49,.01V12.99c-.16,0-.3,.02-.43,.02h-38.28c-.14,0-.28-.03-.41-.04h0c.01-.14,.03-.29,.03-.44V4.67c0-2.47,1.3-4.07,3.71-4.6,.04,0,.07-.03,.1-.05h35.28Z"/><path class="cls-1" d="M143.17,12.97c.02-.15,.04-.3,.04-.45V4.66c0-2.47,1.29-4.07,3.7-4.61,.04,0,.07-.03,.1-.05h35.27V13.01h-38.68c-.15,0-.3-.03-.45-.04h.02Z"/><path class="cls-1" d="M19.5,.01c0,.09,.02,.18,.02,.27V12.99c-.12,0-.23,.03-.34,.03H.19c-.06,0-.13,0-.19-.01V.01H19.5Z"/><path class="cls-1" d="M143.16,12.97c.02,.16,.05,.32,.05,.49v8.24h32.54v8.66h-32.49c-.02,.13-.04,.21-.04,.3,0,1.5-.06,3.01,.05,4.5,.17,2.2,1.98,3.81,4.19,3.89h34.8v13h-34.55c-2.6,0-4.48-1.88-4.49-4.48v-4.09c0-2.57-1.87-4.42-4.45-4.43h-4.09c-2.57,0-4.48-1.9-4.48-4.46V17.47c0-2.54,1.9-4.44,4.45-4.45h8.11c.14,0,.28-.02,.41-.04h-.01Z"/><path class="cls-1" d="M293.01,39.08c-.01,.15-.04,.3-.04,.45v8.06c0,2.3-1.53,4.07-3.8,4.41-.23,.03-.46,.04-.69,.04h-23.6c-2.57,0-4.47-1.89-4.48-4.46v-4.13c-.01-2.54-1.87-4.41-4.42-4.42h-4.09c-2.62,0-4.5-1.89-4.5-4.51V17.52c0-2.64,1.88-4.51,4.54-4.52h8.03c.14,0,.28-.02,.41-.03h0c.01,.17,.04,.34,.04,.52v21.08c0,2.17,1.38,3.91,3.45,4.36,.38,.08,.78,.1,1.18,.1h27.46c.18,0,.35,.03,.53,.05h-.02Z"/><path class="cls-1" d="M293.02,39.09c-.01-.16-.04-.33-.04-.49v-8.23h-19.52v-8.68h28.01c2.68,0,4.53,1.86,4.53,4.55v12.8h-12.53c-.15,0-.3,.02-.45,.04h0Z"/></svg>