<?xml version="1.0" encoding="UTF-8"?><svg id="Layer_1" xmlns="http://www.w3.org/2000/svg" viewBox="0 0 306.33 74.27"><defs><style>.cls-1{fill:#231f20;font-family:ProximaNova-Medium, 'Proxima Nova';font-size:15.14px;font-weight:500;}</style></defs><g><path d="M227.89,12.98c.15,0,.3,.02,.46,.02,2.68,0,5.35,0,8.03,0,2.63,0,4.51,1.88,4.51,4.5,0,11.37,0,22.74,0,34.11,0,.12,0,.25,0,.4h-13.02v-12.96h-26.04v12.96h-13.03c0-.14,0-.28,0-.41,0-11.36,0-22.72,0-34.07,0-2.64,1.88-4.52,4.53-4.52,1.35,0,2.7,0,4.05,0,2.55,0,4.42-1.86,4.43-4.41,0-1.35,0-2.7,0-4.05,0-2.34,1.38-4.02,3.67-4.49,.05,0,.09-.04,.14-.06,6.15,0,12.29,0,18.44,0,.24,.06,.49,.12,.73,.19,1.85,.57,3.07,2.24,3.08,4.22,0,2.72,0,5.44,0,8.16,0,.14,.01,.28,.02,.42-.17,0-.33,0-.5,0-7.02,0-14.05,0-21.07,0-2.62,0-4.51,1.88-4.51,4.5,0,4.14,0,8.27,0,12.41,0,.13,0,.27,0,.4h26.06c0-.2,0-.36,0-.53,0-5.44,0-10.87,0-16.31,0-.17,0-.33,.01-.5Z"/><path d="M52.1,0c0,4.16,0,8.33,0,12.49,0,.15,0,.3,0,.51-.19,0-.35,0-.51,0-4.86,0-9.71,0-14.57,0-2.22,0-3.97,1.43-4.38,3.56-.07,.37-.07,.76-.07,1.14,0,11.26,0,22.51,0,33.77v.54h-13.03c0-.14,0-.27,0-.4,0-11.37,0-22.74,0-34.11,0-2.62,1.89-4.49,4.52-4.5,1.35,0,2.7,0,4.05,0,2.55,0,4.42-1.84,4.45-4.39,.02-1.34,0-2.67,0-4.01,0-2.42,1.3-4.02,3.68-4.55,.04,0,.07-.03,.1-.05,5.25,0,10.51,0,15.76,0Z"/><path d="M110.7,39.04c0,.15-.02,.3-.02,.46,0,4.01,0,8.02,0,12.03,0,.15,0,.3,0,.5-.16,0-.3,0-.44,0-2.7,0-5.41,0-8.11,0-2.59,0-4.46-1.86-4.48-4.45-.01-1.57,.04-3.14-.05-4.7-.13-2.11-1.98-3.8-4.1-3.85-1.5-.03-3.01,0-4.51-.01-2.11-.02-3.83-1.42-4.26-3.47-.08-.38-.1-.78-.1-1.18,0-11.28,0-22.56,0-33.84,0-.18-.01-.35-.02-.53,4.36,0,8.72,0,13.08,0,0,.13-.03,.25-.03,.38,0,11.38,0,22.75,0,34.13,0,.32,0,.64,.07,.95,.41,2.12,2.15,3.56,4.33,3.57,2.88,.01,5.76,0,8.64,.01Z"/><path d="M71.6,0c0,.17,0,.33,0,.5,0,11.36,0,22.71,0,34.07,0,2.17,1.38,3.92,3.45,4.36,.36,.08,.73,.1,1.1,.1,2.65,0,5.3,0,7.95,0h.48v13h-.4c-2.7,0-5.4,0-8.11,0-2.59,0-4.48-1.89-4.48-4.49,0-1.38,0-2.75,0-4.13-.01-2.49-1.88-4.37-4.37-4.39-1.38,0-2.75,0-4.13,0-2.63,0-4.51-1.88-4.51-4.5,0-11.51,0-23.02,0-34.53C62.93,0,67.27,0,71.6,0Z"/><path d="M110.69,39.05c0-1.58,0-3.16,0-4.73,0-11.27,0-22.55,0-33.82,0-.17,0-.33,0-.5,4.33,0,8.67,0,13,0,0,11.53,0,23.06,0,34.59,0,2.54-1.9,4.43-4.45,4.44-2.7,0-5.4,0-8.1,0-.15,0-.3,.01-.46,.02Z"/><path d="M299.5,0V12.98c-.16,0-.3,.02-.43,.02-12.76,0-25.52,0-38.28,0-.14,0-.28-.03-.41-.04,0,0,0,.01,0,.01,.01-.15,.03-.3,.03-.45,0-2.62,0-5.24,0-7.86,0-2.47,1.3-4.07,3.71-4.6,.04,0,.07-.03,.1-.05,11.76,0,23.51,0,35.27,0Z"/><path d="M143.18,12.96c.02-.15,.04-.3,.04-.45,0-2.62,0-5.24,0-7.86,0-2.47,1.29-4.07,3.7-4.61,.04,0,.07-.03,.1-.05,11.76,0,23.51,0,35.27,0V13h-.43c-12.75,0-25.5,0-38.25,0-.15,0-.3-.03-.45-.04h0Z"/><path d="M19.51,0c0,.09,.02,.18,.02,.27,0,4.14,0,8.27,0,12.41v.3c-.12,0-.23,.03-.34,.03-6.33,0-12.66,0-18.99,0-.06,0-.13,0-.19-.01V0C6.5,0,13,0,19.51,0Z"/><path d="M143.17,12.96c.02,.16,.05,.32,.05,.49,0,2.59,0,5.17,0,7.76v.48h32.54v8.66h-32.49c-.02,.13-.04,.21-.04,.3,0,1.5-.06,3.01,.05,4.5,.17,2.2,1.98,3.81,4.19,3.89,.18,0,.36,0,.54,0,11.25,0,22.49,0,33.74,0h.52v13h-.39c-11.39,0-22.77,0-34.16,0-2.6,0-4.48-1.88-4.49-4.48,0-1.36,0-2.73,0-4.09-.01-2.57-1.87-4.42-4.45-4.43-1.36,0-2.73,0-4.09,0-2.57,0-4.48-1.9-4.48-4.46,0-5.71,0-11.41,0-17.12,0-2.54,1.9-4.44,4.45-4.45,2.7,0,5.41,0,8.11,0,.14,0,.28-.02,.41-.04,0,0,0,0,0,0Z"/><path d="M293.02,39.07c-.01,.15-.04,.3-.04,.45,0,2.69,0,5.37,0,8.06,0,2.3-1.53,4.07-3.8,4.41-.23,.03-.46,.04-.69,.04-7.87,0-15.73,0-23.6,0-2.57,0-4.47-1.89-4.48-4.46,0-1.38,0-2.75,0-4.13-.01-2.54-1.87-4.41-4.42-4.42-1.36,0-2.73,0-4.09,0-2.62,0-4.5-1.89-4.5-4.51,0-5.67,0-11.33,0-17,0-2.64,1.88-4.51,4.54-4.52,2.68,0,5.35,0,8.03,0,.14,0,.28-.02,.41-.03,0,0,0-.01,0-.01,.01,.18,.04,.35,.04,.53,0,7.03,0,14.05,0,21.08,0,2.17,1.38,3.91,3.45,4.36,.38,.08,.78,.1,1.18,.1,9.15,0,18.3,0,27.46,0,.18,0,.35,.03,.53,.05,0,0,0,0,0,0Z"/><path d="M293.03,39.08c-.01-.16-.04-.33-.04-.49,0-2.57,0-5.14,0-7.72v-.51h-19.52v-8.68h.43c9.19,0,18.38,0,27.58,0,2.68,0,4.53,1.86,4.53,4.55,0,4.11,0,8.23,0,12.34,0,.14,0,.27,0,.46-.18,0-.33,0-.48,0-4.02,0-8.03,0-12.05,0-.15,0-.3,.02-.45,.04,0,0,0,0,0,0Z"/></g><text class="cls-1" transform="translate(130 69.12)"><tspan x="0" y="0">A Modus Create Company</tspan></text></svg>